<svg height="512pt" viewBox="0 0 512 512.00996" width="512pt" xmlns="http://www.w3.org/2000/svg"><path d="m70.066406 113.613281c-2.183594 0-4.371094-.835937-6.035156-2.5l-42.238281-42.238281c-1.605469-1.597656-2.5-3.773438-2.5-6.035156 0-2.261719.894531-4.4375 2.5-6.03125l36.207031-36.207032c3.199219-3.199218 8.867188-3.199218 12.066406 0l42.238282 42.238282c1.605468 1.605468 2.5 3.773437 2.5 6.035156s-.894532 4.4375-2.5 6.03125l-36.207032 36.207031c-1.671875 1.664063-3.847656 2.5-6.03125 2.5zm-30.175781-50.773437 30.175781 30.175781 24.132813-24.132813-30.175781-30.175781zm0 0"/><path d="m426.671875 471.410156c-.015625 0-.03125 0-.058594 0-2.285156-.019531-4.460937-.949218-6.058593-2.585937l-42.84375-44.023438c-3.261719-3.347656-3.21875-8.6875.082031-11.980469l36.207031-36.207031c1.613281-1.613281 3.6875-2.367187 6.09375-2.503906 2.289062.019531 4.464844.949219 6.058594 2.585937l42.847656 44.023438c3.257812 3.347656 3.214844 8.6875-.085938 11.980469l-36.207031 36.207031c-1.597656 1.605469-3.773437 2.503906-6.035156 2.503906zm-30.855469-52.472656 30.941406 31.792969 24.132813-24.140625-30.941406-31.792969zm0 0"/><path d="m471.839844 492.441406c-1.21875 0-2.449219-.261718-3.601563-.792968l-45.164062-21.023438c-2.527344-1.179688-4.320313-3.515625-4.804688-6.257812-.488281-2.738282.398438-5.546876 2.371094-7.515626l36.207031-36.207031c1.960938-1.972656 4.777344-2.84375 7.519532-2.375 2.746093.488281 5.074218 2.28125 6.253906 4.804688l21.027344 45.167969c1.507812 3.25.835937 7.101562-1.699219 9.632812l-12.074219 12.066406c-1.640625 1.632813-3.824219 2.5-6.035156 2.5zm-30.503906-32.152344 28.695312 13.355469 3.628906-3.617187-13.363281-28.699219zm0 0"/><path d="m503.472656 512.011719c-2.183594 0-4.367187-.839844-6.03125-2.503907l-25.601562-25.597656c-3.335938-3.335937-3.335938-8.730468 0-12.066406 3.328125-3.335938 8.738281-3.335938 12.066406 0l25.601562 25.601562c3.335938 3.335938 3.335938 8.726563 0 12.0625-1.664062 1.664063-3.847656 2.503907-6.035156 2.503907zm0 0"/><path d="m166.601562 222.226562c-2.183593 0-4.367187-.835937-6.03125-2.5l-36.207031-36.207031c-3.335937-3.335937-3.335937-8.730469 0-12.066406l48.273438-48.273437c3.328125-3.335938 8.738281-3.335938 12.066406 0l36.207031 36.207031c3.335938 3.335937 3.335938 8.730469 0 12.066406l-48.273437 48.273437c-1.664063 1.664063-3.847657 2.5-6.035157 2.5zm-24.128906-44.742187 24.128906 24.144531 36.199219-36.207031-24.132812-24.144531zm0 0"/><path d="m33.859375 65.339844c-2.183594 0-4.371094-.835938-6.035156-2.5l-24.128907-24.132813c-1.605468-1.59375-2.503906-3.769531-2.503906-6.03125s.898438-4.4375 2.503906-6.035156l24.128907-24.140625c3.203125-3.199219 8.867187-3.199219 12.066406 0l24.132813 24.140625c1.605468 1.605469 2.5 3.773437 2.5 6.035156s-.894532 4.4375-2.5 6.03125l-24.132813 24.132813c-1.664063 1.671875-3.847656 2.5-6.03125 2.5zm-12.066406-32.664063 12.066406 12.066407 12.066406-12.066407-12.066406-12.066406zm0 0"/><path d="m456.207031 112.605469c-2.183593 0-4.367187-.835938-6.03125-2.5l-48.273437-48.273438c-1.605469-1.601562-2.5-3.769531-2.5-6.03125s.894531-4.4375 2.5-6.03125c1.601562-1.605469 39.851562-39.511719 78.734375-49.050781 8.570312-2.089844 17.46875.441406 23.835937 6.808594 6.367188 6.367187 8.910156 15.285156 6.808594 23.84375-9.53125 38.886718-47.4375 77.125-49.050781 78.734375-1.652344 1.675781-3.839844 2.5-6.023438 2.5zm-35.984375-56.574219 35.753906 35.753906c10.574219-11.859375 32.417969-38.714844 38.734376-64.476562.664062-2.714844-.195313-5.597656-2.304688-7.707032-2.109375-2.117187-5-2.984374-7.707031-2.304687-25.761719 6.324219-52.617188 28.160156-64.476563 38.734375zm62.445313-47.019531h.085937zm0 0"/><path d="m299.324219 269.492188c-2.1875 0-4.371094-.835938-6.035157-2.5l-48.273437-48.273438c-1.605469-1.605469-2.5-3.769531-2.5-6.03125s.894531-4.4375 2.5-6.035156l156.886719-156.875c3.328125-3.335938 8.730468-3.335938 12.066406 0l48.273438 48.273437c1.601562 1.601563 2.5 3.769531 2.5 6.03125s-.898438 4.4375-2.5 6.035157l-156.886719 156.875c-1.664063 1.664062-3.847657 2.5-6.03125 2.5zm-36.207031-56.804688 36.207031 36.207031 144.808593-144.820312-36.207031-36.207031zm0 0"/><path d="m118.304688 450.511719c-2.183594 0-4.367188-.835938-6.03125-2.5l-48.273438-48.273438c-1.605469-1.605469-2.5-3.773437-2.5-6.035156s.894531-4.4375 2.5-6.03125l156.882812-156.886719c3.328126-3.335937 8.730469-3.335937 12.066407 0l48.273437 48.273438c1.605469 1.605468 2.5 3.773437 2.5 6.03125 0 2.261718-.894531 4.4375-2.5 6.035156l-156.886718 156.886719c-1.664063 1.671875-3.847657 2.5-6.03125 2.5zm-36.207032-56.800781 36.207032 36.207031 144.8125-144.816407-36.207032-36.207031zm0 0"/><path d="m287.257812 298.632812c-6.835937 0-13.261718-2.660156-18.101562-7.5l-48.273438-48.273437c-9.972656-9.984375-9.972656-26.222656 0-36.207031 9.667969-9.675782 26.53125-9.675782 36.207032 0l48.273437 48.273437c9.976563 9.984375 9.976563 26.222657 0 36.207031-4.835937 4.839844-11.273437 7.5-18.105469 7.5zm-48.273437-82.414062c-2.28125 0-4.421875.886719-6.035156 2.5-3.328125 3.328125-3.328125 8.738281 0 12.074219l48.273437 48.273437c3.21875 3.21875 8.839844 3.21875 12.066406 0 3.328126-3.328125 3.328126-8.738281 0-12.074218l-48.273437-48.273438c-1.613281-1.613281-3.753906-2.5-6.03125-2.5zm0 0"/><path d="m27.78125 492.75c-4.179688 0-7.824219-3.070312-8.4375-7.320312-6.5625-45.9375 42.554688-95.660157 44.65625-97.75 3.328125-3.335938 8.726562-3.328126 12.054688 0 3.339843 3.328124 3.339843 8.730468.011718 12.066406-.453125.453125-45.1875 45.796875-39.828125 83.269531.667969 4.664063-2.574219 8.984375-7.242187 9.648437-.402344.0625-.8125.085938-1.214844.085938zm0 0"/><path d="m35.234375 493.269531c-2.894531 0-5.777344-.1875-8.644531-.605469-4.667969-.664062-7.910156-4.984374-7.246094-9.648437.664062-4.660156 5.015625-7.894531 9.652344-7.238281 37.589844 5.289062 82.816406-39.371094 83.265625-39.824219 3.328125-3.335937 8.730469-3.335937 12.066406 0s3.335937 8.730469 0 12.066406c-1.953125 1.953125-45.78125 45.25-89.09375 45.25zm0 0"/><path d="m8.539062 512.011719c-2.183593 0-4.367187-.839844-6.03125-2.503907-3.335937-3.335937-3.335937-8.726562 0-12.0625l19.25-19.253906c3.328126-3.335937 8.738282-3.335937 12.066407 0 3.335937 3.335938 3.335937 8.730469 0 12.066406l-19.25 19.25c-1.664063 1.664063-3.847657 2.503907-6.035157 2.503907zm0 0"/><path d="m462.230469 154.847656c-4.179688 0-7.824219-3.074218-8.4375-7.320312l-6.035157-42.242188c-.664062-4.667968 2.578126-8.984375 7.246094-9.652344 4.652344-.636718 8.984375 2.578126 9.652344 7.238282l6.03125 42.238281c.667969 4.667969-2.574219 8.988281-7.242188 9.652344-.410156.058593-.8125.085937-1.214843.085937zm0 0"/><path d="m359.660156 257.425781c-2.183594 0-4.367187-.835937-6.03125-2.5-3.335937-3.335937-3.335937-8.730469 0-12.066406l102.578125-102.578125c3.328125-3.335938 8.730469-3.335938 12.066407 0 3.335937 3.335938 3.335937 8.730469 0 12.066406l-102.578126 102.578125c-1.664062 1.664063-3.847656 2.5-6.035156 2.5zm0 0"/><path d="m305.355469 215.1875c-2.183594 0-4.371094-.835938-6.03125-2.5-3.339844-3.335938-3.339844-8.730469 0-12.066406l96.542969-96.546875c3.328124-3.335938 8.730468-3.335938 12.066406 0 3.335937 3.335937 3.335937 8.730469 0 12.066406l-96.546875 96.546875c-1.664063 1.671875-3.847657 2.5-6.03125 2.5zm0 0"/><path d="m184.675781 335.863281c-2.183593 0-4.367187-.835937-6.03125-2.5-3.335937-3.335937-3.335937-8.726562 0-12.066406l36.207031-36.207031c3.328126-3.335938 8.738282-3.335938 12.066407 0 3.335937 3.339844 3.335937 8.730468 0 12.066406l-36.207031 36.207031c-1.664063 1.675781-3.847657 2.5-6.035157 2.5zm0 0"/><path d="m124.335938 396.210938c-2.183594 0-4.367188-.835938-6.03125-2.5-3.335938-3.335938-3.335938-8.726563 0-12.066407l30.164062-30.171875c3.328125-3.335937 8.730469-3.335937 12.066406 0 3.335938 3.335938 3.335938 8.730469 0 12.066406l-30.164062 30.171876c-1.664063 1.664062-3.847656 2.5-6.035156 2.5zm0 0"/><path d="m208.324219 263.945312c-2.261719 0-4.4375-.894531-6.035157-2.5l-144.296874-144.296874c-1.605469-1.605469-2.5-3.773438-2.5-6.035157s.894531-4.4375 2.5-6.03125l48.273437-48.265625c3.335937-3.335937 8.726563-3.335937 12.066406 0l144.296875 144.296875c1.605469 1.605469 2.5 3.773438 2.5 6.035157 0 2.261718-.894531 4.4375-2.5 6.03125l-5.546875 5.546874c-3.328125 3.335938-8.738281 3.335938-12.066406 0-3.226563-3.222656-8.847656-3.222656-12.066406 0-1.613281 1.613282-2.5 3.757813-2.5 6.035157 0 2.277343.886719 4.417969 2.5 6.03125 1.605469 1.605469 2.5 3.773437 2.5 6.035156s-.894531 4.4375-2.5 6.03125l-18.585938 18.59375c-1.601562 1.597656-3.777343 2.492187-6.039062 2.492187zm-132.226563-152.832031 132.234375 132.234375 7.542969-7.554687c-1.628906-3.402344-2.492188-7.148438-2.492188-11.039063 0-6.835937 2.664063-13.261718 7.492188-18.101562 4.285156-4.28125 9.8125-6.859375 15.769531-7.398438l-124.347656-124.339844zm0 0"/><path d="m377.792969 433.417969c-2.183594 0-4.367188-.835938-6.03125-2.5l-121.199219-121.199219c-1.605469-1.605469-2.5-3.773438-2.5-6.03125 0-2.261719.894531-4.4375 2.5-6.035156l18.585938-18.59375c1.605468-1.605469 3.773437-2.5 6.03125-2.5 2.261718 0 4.4375.894531 6.035156 2.5 3.21875 3.21875 8.839844 3.21875 12.066406 0 3.328125-3.328125 3.328125-8.738282 0-12.074219s-3.328125-8.730469 0-12.066406l5.546875-5.546875c3.328125-3.335938 8.738281-3.335938 12.066406 0l121.199219 121.199218c1.601562 1.605469 2.5 3.769532 2.5 6.03125 0 2.261719-.898438 4.4375-2.5 6.035157l-48.273438 48.265625c-1.65625 1.679687-3.839843 2.515625-6.027343 2.515625zm-109.132813-129.730469 109.132813 109.121094 36.207031-36.195313-101.261719-101.257812c-.523437 5.757812-2.980469 11.375-7.382812 15.777343-7.585938 7.59375-19.746094 9.515626-29.148438 5.007813zm0 0"/></svg>